<?xml version="1.0" standalone="no"?>
<!DOCTYPE svg PUBLIC "-//W3C//DTD SVG 20010904//EN"
 "http://www.w3.org/TR/2001/REC-SVG-20010904/DTD/svg10.dtd">
<svg version="1.0" xmlns="http://www.w3.org/2000/svg"
 width="337.000000pt" height="385.000000pt" viewBox="0 0 337.000000 385.000000"
 preserveAspectRatio="xMidYMid meet">

<g transform="translate(0.000000,385.000000) scale(0.100000,-0.100000)"
fill="#000000" stroke="none">
<path d="M1360 3664 c-168 -97 -393 -226 -500 -286 -107 -61 -240 -136 -295
-167 -55 -31 -200 -113 -323 -181 l-222 -125 0 -967 0 -966 378 -220 c207
-120 440 -254 517 -297 77 -44 187 -109 245 -145 166 -106 497 -300 511 -300
14 0 190 96 394 215 77 45 374 216 660 380 286 163 546 313 578 332 l57 34 0
958 c0 900 -1 959 -17 973 -10 9 -94 58 -188 108 -93 51 -249 138 -345 195
-588 344 -1102 635 -1122 635 -13 0 -160 -80 -328 -176z m750 -304 c151 -86
364 -209 472 -273 108 -64 241 -139 295 -166 54 -27 115 -61 137 -74 l38 -24
-108 -58 c-60 -32 -275 -152 -479 -268 -203 -115 -426 -240 -495 -278 -69 -37
-156 -86 -195 -108 -38 -23 -75 -41 -82 -41 -15 0 -283 148 -533 295 -96 56
-272 158 -390 225 -118 68 -232 134 -254 147 -21 14 -70 41 -109 60 -82 41
-85 35 53 110 47 25 173 96 280 158 107 62 340 194 517 294 178 99 346 196
374 215 l51 34 76 -45 c43 -25 201 -116 352 -203z m-1827 -741 c23 -12 138
-77 255 -145 668 -389 699 -408 915 -529 l137 -77 0 -785 0 -785 -32 20 c-18
11 -82 50 -143 87 -160 99 -447 268 -625 369 -85 49 -202 116 -260 151 -58 34
-149 88 -202 119 l-98 57 0 769 c0 424 2 770 5 770 3 0 25 -10 48 -21z m2867
-618 l0 -629 -162 -94 c-774 -448 -1158 -669 -1172 -674 -15 -6 -17 2 -14 76
l3 82 265 151 c146 83 391 224 545 313 154 89 304 175 332 190 l53 29 0 469
c0 408 -2 467 -15 462 -8 -3 -139 -76 -292 -162 -597 -337 -860 -483 -876
-490 -16 -6 -18 1 -15 76 l3 82 435 242 c239 134 539 302 665 374 127 72 233
131 238 131 4 1 7 -282 7 -628z m-552 -150 c8 -4 18 -28 23 -52 12 -51 11 -52
-121 -125 -47 -27 -221 -126 -388 -221 -167 -95 -306 -173 -308 -173 -3 0 -4
37 -2 82 l3 82 310 174 c464 260 451 254 483 233z m240 -218 c20 -39 21 -80 4
-96 -9 -8 -224 -133 -477 -277 -253 -145 -477 -274 -497 -287 -62 -38 -68 -34
-68 51 l0 74 78 45 c67 39 357 205 677 387 223 127 263 142 283 103z"/>
</g>
</svg>
