<?xml version="1.0" standalone="no"?>
<!DOCTYPE svg PUBLIC "-//W3C//DTD SVG 20010904//EN"
 "http://www.w3.org/TR/2001/REC-SVG-20010904/DTD/svg10.dtd">
<svg version="1.0" xmlns="http://www.w3.org/2000/svg"
 width="884.000000pt" height="442.000000pt" viewBox="0 0 884.000000 442.000000"
 preserveAspectRatio="xMidYMid meet">

<g transform="translate(0.000000,442.000000) scale(0.100000,-0.100000)"
fill="#000000" stroke="none">
<path d="M2080 4114 c-168 -97 -393 -226 -500 -286 -107 -61 -240 -136 -295
-167 -55 -31 -200 -113 -323 -181 l-222 -125 0 -967 0 -966 378 -220 c207
-120 440 -254 517 -297 77 -44 187 -109 245 -145 166 -106 497 -300 511 -300
14 0 190 96 394 215 77 45 374 216 660 380 286 163 546 313 578 332 l57 34 0
958 c0 900 -1 959 -17 973 -10 9 -94 58 -188 108 -93 51 -249 138 -345 195
-588 344 -1102 635 -1122 635 -13 0 -160 -80 -328 -176z m750 -304 c151 -86
364 -209 472 -273 108 -64 241 -139 295 -166 54 -27 115 -61 137 -74 l38 -24
-108 -58 c-60 -32 -275 -152 -479 -268 -203 -115 -426 -240 -495 -278 -69 -37
-156 -86 -195 -108 -38 -23 -75 -41 -82 -41 -15 0 -283 148 -533 295 -96 56
-272 158 -390 225 -118 68 -232 134 -254 147 -21 14 -70 41 -109 60 -82 41
-85 35 53 110 47 25 173 96 280 158 107 62 340 194 517 294 178 99 346 196
374 215 l51 34 76 -45 c43 -25 201 -116 352 -203z m-1827 -741 c23 -12 138
-77 255 -145 668 -389 699 -408 915 -529 l137 -77 0 -785 0 -785 -32 20 c-18
11 -82 50 -143 87 -160 99 -447 268 -625 369 -85 49 -202 116 -260 151 -58 34
-149 88 -202 119 l-98 57 0 769 c0 424 2 770 5 770 3 0 25 -10 48 -21z m2867
-618 l0 -629 -162 -94 c-774 -448 -1158 -669 -1172 -674 -15 -6 -17 2 -14 76
l3 82 265 151 c146 83 391 224 545 313 154 89 304 175 332 190 l53 29 0 469
c0 408 -2 467 -15 462 -8 -3 -139 -76 -292 -162 -597 -337 -860 -483 -876
-490 -16 -6 -18 1 -15 76 l3 82 435 242 c239 134 539 302 665 374 127 72 233
131 238 131 4 1 7 -282 7 -628z m-552 -150 c8 -4 18 -28 23 -52 12 -51 11 -52
-121 -125 -47 -27 -221 -126 -388 -221 -167 -95 -306 -173 -308 -173 -3 0 -4
37 -2 82 l3 82 310 174 c464 260 451 254 483 233z m240 -218 c20 -39 21 -80 4
-96 -9 -8 -224 -133 -477 -277 -253 -145 -477 -274 -497 -287 -62 -38 -68 -34
-68 51 l0 74 78 45 c67 39 357 205 677 387 223 127 263 142 283 103z"/>
<path d="M5005 3653 c-254 -54 -439 -221 -521 -471 -15 -45 -25 -84 -23 -87 3
-2 89 -5 193 -5 l188 -2 36 73 c62 123 155 177 290 167 81 -6 137 -33 184 -88
79 -91 77 -218 -3 -305 -58 -63 -152 -96 -299 -107 l-35 -3 -3 -152 -3 -153
83 0 c194 -1 310 -69 348 -205 35 -126 -19 -253 -134 -314 -176 -92 -398 -15
-465 163 l-19 51 -196 3 -196 2 6 -27 c34 -157 88 -257 194 -364 70 -70 101
-94 170 -127 107 -51 208 -72 350 -72 239 0 413 69 551 217 128 138 175 315
134 507 -30 141 -106 241 -231 302 -41 21 -74 40 -74 43 0 3 25 19 56 35 70
37 148 123 175 196 48 124 33 308 -34 434 -121 230 -427 352 -722 289z"/>
<path d="M6080 2650 l0 -960 355 0 c196 0 399 5 452 11 526 58 830 451 799
1034 -8 155 -35 266 -96 390 -123 253 -361 420 -670 470 -73 11 -180 15 -467
15 l-373 0 0 -960z m796 593 c109 -31 182 -71 255 -143 115 -113 159 -238 159
-451 0 -214 -49 -349 -166 -458 -124 -117 -233 -152 -491 -158 l-183 -5 0 622
0 622 178 -5 c132 -3 195 -10 248 -24z"/>
<path d="M4220 1015 l0 -315 65 0 65 0 0 110 0 110 50 0 c27 0 72 5 100 11
199 43 199 345 0 388 -28 6 -103 11 -165 11 l-115 0 0 -315z m260 176 c19 -14
26 -29 28 -63 4 -62 -27 -88 -104 -88 l-54 0 0 91 0 92 53 -7 c28 -4 63 -15
77 -25z"/>
<path d="M4735 1317 c-3 -7 -4 -147 -3 -312 l3 -300 68 -3 67 -3 0 109 c0 117
2 122 54 122 18 0 31 -19 75 -115 l54 -115 73 0 c41 0 74 2 74 5 0 3 -27 62
-61 132 l-61 127 26 19 c41 29 66 88 66 152 0 31 -5 66 -11 78 -24 46 -74 88
-123 102 -65 19 -294 21 -301 2z m271 -122 c45 -29 34 -114 -17 -140 -15 -8
-48 -15 -74 -15 l-45 0 0 91 0 91 58 -7 c31 -3 67 -13 78 -20z"/>
<path d="M5530 1015 l0 -315 65 0 65 0 0 187 c0 111 4 183 9 178 5 -6 55 -90
111 -187 l102 -178 69 0 69 0 -2 313 -3 312 -67 3 -68 3 -2 -192 -3 -191 -109
191 -108 191 -64 0 -64 0 0 -315z"/>
<path d="M6870 1015 l0 -315 65 0 65 0 0 185 c0 102 4 185 9 185 5 0 36 -48
69 -107 33 -60 79 -143 103 -185 l44 -78 68 0 67 0 0 315 0 315 -65 0 -65 0 0
-190 c0 -104 -3 -190 -7 -190 -5 0 -23 28 -41 63 -18 34 -65 118 -105 187
l-72 125 -68 3 -67 3 0 -316z"/>
<path d="M7650 1311 c-63 -26 -126 -84 -157 -144 -34 -68 -43 -179 -19 -260
21 -73 95 -155 168 -188 73 -32 185 -33 245 -1 103 54 161 142 171 257 l5 65
-147 0 -147 0 3 -57 3 -58 68 0 c79 0 84 -10 34 -60 -56 -56 -147 -59 -208 -8
-95 80 -89 254 11 321 30 20 45 23 97 20 54 -3 67 -8 96 -36 31 -30 37 -32
105 -32 43 0 72 4 72 10 0 21 -39 86 -67 111 -54 51 -111 72 -203 76 -66 2
-95 -1 -130 -16z"/>
<path d="M5280 1010 l0 -310 65 0 64 0 3 310 3 310 -67 0 -68 0 0 -310z"/>
<path d="M6100 1261 l0 -60 73 -3 72 -3 0 -250 0 -250 68 -3 67 -3 0 256 0
255 80 0 81 0 -3 58 -3 57 -217 3 -218 2 0 -59z"/>
<path d="M6620 1010 l0 -310 70 0 70 0 0 310 0 310 -70 0 -70 0 0 -310z"/>
</g>
</svg>
