<?xml version="1.0" standalone="no"?>
<!DOCTYPE svg PUBLIC "-//W3C//DTD SVG 20010904//EN"
 "http://www.w3.org/TR/2001/REC-SVG-20010904/DTD/svg10.dtd">
<svg version="1.0" xmlns="http://www.w3.org/2000/svg"
 width="1050.000000pt" height="600.000000pt" viewBox="0 0 1050.000000 600.000000"
 preserveAspectRatio="xMidYMid meet">

<g transform="translate(0.000000,600.000000) scale(0.100000,-0.100000)"
fill="#000000" stroke="none">
<path d="M3865 4108 c-104 -61 -320 -184 -480 -274 l-290 -162 0 -568 0 -567
155 -90 c85 -50 236 -137 335 -194 99 -57 247 -145 328 -194 l148 -90 112 64
c314 178 806 462 840 483 l37 24 0 563 0 563 -152 85 c-84 47 -241 136 -348
198 -389 226 -469 271 -482 271 -7 -1 -98 -51 -203 -112z m438 -162 c304 -175
444 -255 506 -288 28 -16 51 -32 51 -36 0 -4 -20 -18 -44 -29 -24 -12 -157
-86 -297 -165 -140 -80 -298 -168 -351 -197 l-97 -52 -113 64 c-62 35 -221
126 -353 202 -132 76 -257 148 -277 159 -21 12 -38 24 -38 27 0 6 110 70 501
289 124 70 236 134 250 143 13 9 25 17 26 17 2 0 108 -60 236 -134z m-798
-592 c121 -70 284 -164 363 -208 l142 -79 0 -459 c0 -252 -2 -458 -5 -458 -3
0 -47 26 -98 58 -51 32 -168 102 -262 156 -93 54 -227 132 -297 173 l-128 75
0 454 0 453 33 -18 c17 -11 131 -77 252 -147z m1425 -213 l0 -369 -87 -50
c-49 -27 -216 -123 -373 -214 -157 -91 -295 -170 -307 -177 -22 -11 -23 -10
-23 36 l0 49 193 109 c105 59 224 127 262 150 39 23 109 64 157 91 l87 49 1
274 c0 231 -2 272 -14 268 -8 -3 -124 -67 -258 -143 -347 -196 -416 -234 -423
-234 -3 0 -5 21 -3 47 l3 47 320 179 c176 98 345 192 375 209 30 17 59 34 65
39 5 5 13 9 17 9 4 0 8 -166 8 -369z m-322 -93 c25 -25 14 -56 -30 -81 -24
-14 -122 -69 -218 -124 -96 -55 -185 -105 -197 -112 -22 -11 -23 -10 -23 36
l0 48 152 85 c187 105 289 160 298 160 3 0 11 -5 18 -12z m128 -116 c20 -13
23 -50 5 -65 -9 -8 -131 -80 -271 -160 -140 -79 -272 -155 -292 -167 l-38 -22
0 49 0 48 176 100 c288 164 398 225 404 225 3 0 10 -4 16 -8z"/>
<path d="M5593 3846 c-111 -27 -200 -87 -259 -176 -27 -40 -65 -145 -57 -154
4 -3 54 -6 112 -6 l106 0 25 47 c42 81 122 117 203 93 82 -24 122 -99 98 -181
-16 -52 -69 -87 -155 -102 l-66 -11 0 -88 0 -88 59 0 c121 0 191 -61 191 -167
0 -95 -72 -156 -183 -156 -74 0 -129 36 -164 106 l-24 47 -111 0 -110 0 6 -35
c35 -187 201 -315 408 -315 180 0 320 76 385 208 24 50 28 68 27 142 0 53 -7
99 -16 121 -23 52 -75 107 -127 133 l-45 23 29 16 c42 22 91 75 109 119 23 53
20 156 -5 222 -23 64 -87 134 -148 165 -49 25 -153 51 -201 50 -19 0 -58 -6
-87 -13z"/>
<path d="M6222 3258 l3 -563 235 1 c264 1 320 8 426 60 156 76 242 205 271
404 15 103 15 120 0 211 -30 182 -119 310 -268 383 -113 56 -180 66 -442 66
l-227 0 2 -562z m512 332 c70 -27 131 -84 166 -155 20 -41 25 -69 28 -160 3
-96 1 -118 -19 -169 -54 -146 -199 -223 -399 -214 l-65 3 -3 364 -2 363 117
-4 c90 -4 132 -10 177 -28z"/>
<path d="M5130 2300 l0 -180 40 0 40 0 0 59 0 58 52 7 c100 14 146 81 112 166
-23 56 -54 70 -159 70 l-85 0 0 -180z m144 110 c21 -8 26 -16 26 -44 0 -39
-20 -56 -64 -56 -25 0 -26 3 -26 55 0 60 9 66 64 45z"/>
<path d="M5430 2300 l0 -180 40 0 39 0 3 63 c3 53 6 62 23 65 16 2 28 -12 55
-65 29 -57 40 -69 63 -71 58 -7 60 2 20 84 -27 55 -34 78 -25 81 20 7 42 59
42 99 0 28 -8 44 -34 70 -34 34 -34 34 -130 34 l-96 0 0 -180z m172 97 c13
-20 9 -54 -7 -67 -8 -6 -29 -13 -47 -13 -31 -2 -33 0 -36 37 -5 60 2 69 46 61
20 -4 40 -12 44 -18z"/>
<path d="M5755 2468 c-2 -7 -3 -87 -2 -178 l2 -165 38 -3 37 -3 0 180 0 181
-35 0 c-20 0 -38 -6 -40 -12z"/>
<path d="M5900 2300 l0 -180 40 0 39 0 3 105 3 105 58 -105 59 -105 44 0 45 0
-3 178 -3 177 -37 3 -38 3 0 -105 c0 -58 -3 -106 -7 -106 -5 1 -34 48 -66 105
l-59 105 -39 0 -39 0 0 -180z"/>
<path d="M6237 2473 c-4 -3 -7 -19 -7 -35 0 -27 2 -28 45 -28 l45 0 0 -150 0
-150 40 0 40 0 0 150 0 150 45 0 c45 0 45 0 45 35 l0 35 -123 0 c-68 0 -127
-3 -130 -7z"/>
<path d="M6540 2300 l0 -180 40 0 40 0 0 180 0 180 -40 0 -40 0 0 -180z"/>
<path d="M6690 2300 l0 -180 35 0 35 0 0 105 c0 58 3 105 8 105 4 0 33 -48 65
-105 l58 -105 39 0 40 0 0 180 0 180 -35 0 c-40 0 -38 6 -35 -127 1 -46 -2
-83 -7 -83 -4 0 -35 47 -67 105 -60 105 -60 105 -98 105 l-38 0 0 -180z"/>
<path d="M7134 2470 c-11 -4 -35 -22 -52 -39 -94 -95 -51 -275 73 -310 58 -16
86 -14 135 12 55 27 90 83 90 145 l0 43 -82 -3 -83 -3 -3 -32 c-3 -32 -2 -33
37 -33 45 0 54 -16 24 -42 -47 -41 -119 -23 -147 37 -20 41 -20 68 -1 105 31
60 94 78 142 40 17 -13 41 -20 70 -20 l45 0 -19 32 c-32 55 -77 78 -147 77
-34 0 -70 -4 -82 -9z"/>
</g>
</svg>
